<svg xmlns="http://www.w3.org/2000/svg" viewBox="0 0 180 150" role="img" aria-labelledby="title desc">
  <title id="title">학생 응원 마스코트</title>
  <desc id="desc">학습을 응원하는 둥근 민트색 캐릭터</desc>
  <defs>
    <linearGradient id="mint" x1="28" y1="16" x2="142" y2="132" gradientUnits="userSpaceOnUse">
      <stop stop-color="#94F0DC"/>
      <stop offset="1" stop-color="#38C7BD"/>
    </linearGradient>
    <linearGradient id="blue" x1="52" y1="58" x2="124" y2="132" gradientUnits="userSpaceOnUse">
      <stop stop-color="#6AA7FF"/>
      <stop offset="1" stop-color="#1677EE"/>
    </linearGradient>
  </defs>
  <path d="M128 24c10-16 30-6 20 13 14-9 28 6 15 20 18 12 10 39-11 38-6 25-31 41-61 36-34-5-58-28-57-58 1-33 31-56 70-51 5-10 15-13 24 2Z" fill="url(#mint)"/>
  <ellipse cx="93" cy="78" rx="50" ry="38" fill="#fff" opacity="0.95"/>
  <circle cx="77" cy="76" r="5" fill="#172033"/>
  <circle cx="108" cy="76" r="5" fill="#172033"/>
  <path d="M83 94c7 7 18 7 25 0" fill="none" stroke="#172033" stroke-width="5" stroke-linecap="round"/>
  <path d="M39 96c-12 2-21-5-22-17" fill="none" stroke="#38C7BD" stroke-width="12" stroke-linecap="round"/>
  <path d="M142 93c15 1 24-7 26-20" fill="none" stroke="#38C7BD" stroke-width="12" stroke-linecap="round"/>
  <rect x="58" y="106" width="72" height="28" rx="10" fill="url(#blue)" transform="rotate(-7 94 120)"/>
  <path d="M58 119h72" stroke="#fff" stroke-width="5" stroke-linecap="round" opacity="0.9"/>
  <path d="M63 130h42" stroke="#fff" stroke-width="5" stroke-linecap="round" opacity="0.78"/>
  <path d="M30 34l5 10 11 1-8 7 2 11-10-6-9 6 2-11-8-7 11-1 4-10Z" fill="#FFD84D"/>
  <path d="M151 17l4 8 8 1-6 6 1 8-7-4-7 4 1-8-6-6 8-1 4-8Z" fill="#FFD84D"/>
</svg>
